# Blender 3.5.1
# www.blender.org
mtllib dirt.mtl
o Plane
v -5.000000 -0.090341 21.993534
v 5.000000 -0.090341 21.993534
v -5.000000 -0.090341 -21.993534
v 5.000000 -0.090341 -21.993534
v -5.000000 0.235825 21.993534
v 5.000000 0.235825 21.993534
v -5.000000 0.235825 -21.993534
v 5.000000 0.235825 -21.993534
vn -0.0000 -1.0000 -0.0000
vn -0.0000 1.0000 -0.0000
vn 1.0000 -0.0000 -0.0000
vn -1.0000 -0.0000 -0.0000
vn -0.0000 -0.0000 -1.0000
vn -0.0000 -0.0000 1.0000
vt 0.475849 1.000000
vt 0.981959 0.000000
vt 0.951887 1.000000
vt 0.966923 0.000000
vt 0.936850 1.000000
vt 0.981959 0.227340
vt 0.951887 0.000000
vt 0.475849 0.000000
vt 0.981959 0.454679
vt 0.981959 0.227340
vt 0.936851 0.000000
vt 0.966923 1.000000
vt 0.475849 1.000000
vt 0.936851 1.000000
vt 0.966923 0.000000
vt 0.014847 1.000000
vt 0.951887 0.000000
vt 0.966923 0.227340
vt 0.475849 0.000000
vt 0.936851 0.000000
vt 0.966923 0.454679
vt 0.014847 0.000000
vt 0.951887 1.000000
vt 0.966923 0.227340
s 0
usemtl Material.003
f 3/8/1 2/5/1 1/1/1
f 6/16/2 7/19/2 5/13/2
f 4/12/3 6/17/3 2/4/3
f 1/3/4 7/20/4 3/7/4
f 3/9/5 8/24/5 4/10/5
f 2/6/6 5/15/6 1/2/6
f 3/8/1 4/11/1 2/5/1
f 6/16/2 8/22/2 7/19/2
f 4/12/3 8/23/3 6/17/3
f 1/3/4 5/14/4 7/20/4
f 3/9/5 7/21/5 8/24/5
f 2/6/6 6/18/6 5/15/6
