# Blender 3.5.1
# www.blender.org
mtllib grass.mtl
o Circle
v 0.000000 0.000000 -20.000000
v -3.901806 0.000000 -19.615705
v -7.653669 0.000000 -18.477591
v -11.111404 0.000000 -16.629393
v -14.142136 0.000000 -14.142136
v -16.629393 0.000000 -11.111404
v -18.477591 0.000000 -7.653669
v -19.615705 0.000000 -3.901806
v -20.000000 0.000000 0.000000
v -19.615705 0.000000 3.901806
v -18.477591 0.000000 7.653669
v -16.629393 0.000000 11.111404
v -14.142136 0.000000 14.142136
v -11.111404 0.000000 16.629393
v -7.653669 0.000000 18.477591
v -3.901806 0.000000 19.615705
v 0.000000 0.000000 20.000000
v 3.901806 0.000000 19.615705
v 7.653669 0.000000 18.477591
v 11.111404 0.000000 16.629393
v 14.142136 0.000000 14.142136
v 16.629393 0.000000 11.111404
v 18.477591 0.000000 7.653669
v 19.615705 0.000000 3.901806
v 20.000000 0.000000 0.000000
v 19.615705 0.000000 -3.901806
v 18.477591 0.000000 -7.653669
v 16.629393 0.000000 -11.111404
v 14.142136 0.000000 -14.142136
v 11.111404 0.000000 -16.629393
v 7.653669 0.000000 -18.477591
v 3.901806 0.000000 -19.615705
vn -0.0000 -1.0000 -0.0000
vt 0.533166 0.999900
vt 0.598225 0.980689
vt 0.659508 0.943006
vt 0.714661 0.888298
vt 0.761566 0.818668
vt 0.798418 0.736791
vt 0.823802 0.645816
vt 0.836743 0.549236
vt 0.836743 0.450764
vt 0.823802 0.354185
vt 0.798418 0.263209
vt 0.761565 0.181332
vt 0.714661 0.111702
vt 0.659508 0.056994
vt 0.598224 0.019311
vt 0.533166 0.000100
vt 0.466833 0.000100
vt 0.401775 0.019311
vt 0.340492 0.056994
vt 0.285339 0.111702
vt 0.238434 0.181332
vt 0.201582 0.263209
vt 0.176198 0.354184
vt 0.163257 0.450764
vt 0.163257 0.549236
vt 0.176198 0.645815
vt 0.201582 0.736791
vt 0.238434 0.818668
vt 0.285339 0.888298
vt 0.340492 0.943006
vt 0.401776 0.980689
vt 0.466834 0.999900
s 0
usemtl Material.002
f 2/2/1 1/1/1 32/32/1
f 3/3/1 2/2/1 32/32/1
f 3/3/1 32/32/1 31/31/1
f 4/4/1 3/3/1 31/31/1
f 4/4/1 31/31/1 30/30/1
f 5/5/1 4/4/1 30/30/1
f 5/5/1 30/30/1 29/29/1
f 6/6/1 5/5/1 29/29/1
f 6/6/1 29/29/1 28/28/1
f 7/7/1 6/6/1 28/28/1
f 28/28/1 27/27/1 26/26/1
f 8/8/1 28/28/1 26/26/1
f 9/9/1 8/8/1 26/26/1
f 9/9/1 26/26/1 25/25/1
f 10/10/1 9/9/1 25/25/1
f 10/10/1 25/25/1 24/24/1
f 24/24/1 12/12/1 10/10/1
f 23/23/1 12/12/1 24/24/1
f 12/12/1 11/11/1 10/10/1
f 12/12/1 23/23/1 22/22/1
f 13/13/1 12/12/1 22/22/1
f 13/13/1 22/22/1 21/21/1
f 14/14/1 13/13/1 21/21/1
f 14/14/1 21/21/1 20/20/1
f 15/15/1 14/14/1 20/20/1
f 15/15/1 20/20/1 19/19/1
f 16/16/1 15/15/1 19/19/1
f 16/16/1 19/19/1 18/18/1
f 17/17/1 16/16/1 18/18/1
f 8/8/1 7/7/1 28/28/1
